<svg width="250" height="450" viewBox="0 0 313 560" fill="none" xmlns="http://www.w3.org/2000/svg">
<rect x="4" y="30" width="304.573" height="331.38" rx="10" fill="white"/>
<path d="M21.0559 325.924C21.0559 324.418 22.277 323.196 23.7833 323.196H243.713C245.219 323.196 246.44 324.418 246.44 325.924C246.44 327.43 245.219 328.651 243.713 328.651H23.7833C22.277 328.651 21.0559 327.43 21.0559 325.924Z" fill="#D9D9D9"/>
<path d="M21.0559 335.47C21.0559 333.963 22.277 332.742 23.7833 332.742H207.164C208.67 332.742 209.891 333.963 209.891 335.47C209.891 336.976 208.67 338.197 207.164 338.197H23.7833C22.277 338.197 21.0559 336.976 21.0559 335.47Z" fill="#D9D9D9"/>
<path d="M21.0559 297.286C21.0559 295.779 22.277 294.558 23.7833 294.558H248.586C250.092 294.558 251.313 295.779 251.313 297.286C251.313 298.792 250.092 300.013 248.586 300.013H23.7833C22.277 300.013 21.0559 298.792 21.0559 297.286Z" fill="#D9D9D9"/>
<path d="M21.0559 316.378C21.0559 314.872 22.277 313.65 23.7833 313.65H151.122C152.629 313.65 153.85 314.872 153.85 316.378C153.85 317.884 152.629 319.105 151.122 319.105H23.7833C22.277 319.105 21.0559 317.884 21.0559 316.378Z" fill="#D9D9D9"/>
<path d="M21.0559 306.832C21.0559 305.325 22.277 304.104 23.7833 304.104H221.783C223.29 304.104 224.511 305.325 224.511 306.832C224.511 308.338 223.29 309.559 221.783 309.559H23.7833C22.277 309.559 21.0559 308.338 21.0559 306.832Z" fill="#D9D9D9"/>
<path d="M21.0559 64.0927H292.735V246.829H21.0559V64.0927Z" fill="#BF89F4" fill-opacity="0.42"/>
<path d="M280.553 263.492C280.553 262.574 281.235 261.829 282.075 261.829V263.492V277.115L286.203 273.898C286.466 273.69 286.825 273.69 287.088 273.898L291.213 277.115V263.492H282.075V261.829H291.213C292.053 261.829 292.736 262.574 292.736 263.492V278.728C292.736 279.04 292.577 279.324 292.323 279.466C292.069 279.608 291.765 279.584 291.533 279.403L286.644 275.594L281.755 279.403C281.523 279.584 281.219 279.608 280.965 279.466C280.711 279.324 280.553 279.04 280.553 278.728V263.492Z" fill="black"/>
<path d="M89.2803 264.008C89.2805 263.998 89.2805 263.989 89.2803 263.979C89.2796 263.954 89.2773 263.93 89.2736 263.906C89.2724 263.899 89.272 263.891 89.2704 263.884C89.2645 263.854 89.256 263.825 89.2451 263.796C89.2419 263.788 89.2379 263.78 89.2344 263.772C89.225 263.75 89.2145 263.729 89.2023 263.709C89.1974 263.7 89.1925 263.692 89.187 263.684C89.1691 263.657 89.1497 263.631 89.127 263.608C89.1042 263.584 89.079 263.564 89.0529 263.545C89.0456 263.54 89.038 263.535 89.0302 263.53C89.0095 263.517 88.9882 263.506 88.9662 263.496C88.9593 263.493 88.9528 263.489 88.9458 263.486C88.9174 263.475 88.8882 263.465 88.8583 263.459C88.8529 263.458 88.8472 263.458 88.8418 263.457C88.8168 263.452 88.7916 263.45 88.7663 263.449C88.7578 263.449 88.7496 263.449 88.7413 263.449C88.7165 263.45 88.6917 263.452 88.6669 263.457C88.6607 263.458 88.6547 263.458 88.6485 263.459C88.6214 263.465 88.5947 263.473 88.5683 263.483L73.7851 269.215C73.5873 269.291 73.4528 269.482 73.4432 269.701C73.4337 269.919 73.5509 270.122 73.7411 270.217L79.8043 273.24L82.7303 279.505C82.8188 279.694 83.0041 279.814 83.206 279.814C83.2141 279.814 83.222 279.813 83.2301 279.813C83.4411 279.803 83.6262 279.664 83.7005 279.46L89.2479 264.185C89.2578 264.158 89.265 264.131 89.2704 264.103C89.2719 264.095 89.2724 264.088 89.2734 264.081C89.2773 264.057 89.2796 264.032 89.2803 264.008ZM86.656 265.39L80.0919 272.172L75.3113 269.788L86.656 265.39ZM83.1453 277.883L80.8384 272.943L87.4026 266.161L83.1453 277.883Z" fill="black"/>
<path d="M51.6818 274.27C52.0809 273.945 52.5975 273.862 53.0615 274.049C53.8812 274.381 54.7999 274.572 55.7774 274.572C59.6348 274.572 62.2115 271.784 62.2115 269.032C62.2115 266.279 59.6348 263.491 55.7774 263.491C51.92 263.491 49.3433 266.279 49.3433 269.032C49.3433 270.14 49.7269 271.206 50.4476 272.12C50.7136 272.456 50.8436 272.899 50.8126 273.349C50.7693 273.976 50.6363 274.551 50.4631 275.06C50.9889 274.786 51.4251 274.482 51.6818 274.274V274.27ZM48.5143 275.676C48.57 275.583 48.6226 275.489 48.672 275.396C48.9814 274.821 49.2752 274.066 49.334 273.218C48.406 272.037 47.8585 270.593 47.8585 269.032C47.8585 265.053 51.4034 261.829 55.7774 261.829C60.1514 261.829 63.6963 265.053 63.6963 269.032C63.6963 273.01 60.1514 276.234 55.7774 276.234C54.6298 276.234 53.5409 276.012 52.5573 275.614C52.1892 275.915 51.589 276.327 50.8776 276.673C50.4105 276.902 49.8784 277.11 49.3278 277.231C49.3031 277.238 49.2783 277.241 49.2536 277.248C49.1175 277.276 48.9845 277.3 48.8453 277.314C48.8391 277.314 48.8298 277.317 48.8236 277.317C48.6659 277.335 48.5081 277.345 48.3503 277.345C48.1493 277.345 47.9699 277.21 47.8925 277.002C47.8152 276.795 47.8585 276.559 47.9977 276.4C48.1245 276.254 48.239 276.099 48.3472 275.932C48.3998 275.853 48.4493 275.773 48.4957 275.693C48.4988 275.687 48.5019 275.683 48.505 275.676H48.5143Z" fill="black"/>
<path d="M28.0406 276.933L27.9633 276.854L22.5438 271.22C21.5941 270.233 21.0559 268.848 21.0559 267.397V267.283C21.0559 264.846 22.6026 262.754 24.7431 262.297C25.9619 262.034 27.2085 262.349 28.2015 263.132C28.4799 263.353 28.7397 263.609 28.9748 263.904C29.1047 263.737 29.2439 263.585 29.3924 263.443C29.5069 263.332 29.6244 263.229 29.7481 263.132C30.7411 262.349 31.9877 262.034 33.2065 262.294C35.3471 262.751 36.8937 264.846 36.8937 267.283V267.397C36.8937 268.848 36.3555 270.233 35.4058 271.22L29.9863 276.854L29.909 276.933C29.6553 277.196 29.3213 277.345 28.9748 277.345C28.6284 277.345 28.2943 277.2 28.0406 276.933ZM28.452 265.742C28.4397 265.732 28.4304 265.718 28.4211 265.704L27.8705 265.012L27.8674 265.008C27.1528 264.111 26.0733 263.703 25.0215 263.928C23.5801 264.236 22.5407 265.642 22.5407 267.283V267.397C22.5407 268.384 22.9088 269.329 23.5553 270.001L28.9748 275.635L34.3943 270.001C35.0408 269.329 35.4089 268.384 35.4089 267.397V267.283C35.4089 265.645 34.3696 264.236 32.9312 263.928C31.8794 263.703 30.7968 264.115 30.0853 265.008C30.0853 265.008 30.0853 265.008 30.0822 265.012C30.0791 265.015 30.0822 265.012 30.0791 265.015L29.5285 265.708C29.5192 265.722 29.5069 265.732 29.4976 265.746C29.3584 265.902 29.1697 265.988 28.9748 265.988C28.7799 265.988 28.5912 265.902 28.452 265.746V265.742Z" fill="black"/>
<path d="M47.8582 49.0918C47.8582 47.5855 49.0793 46.3644 50.5856 46.3644H80.4612C81.9675 46.3644 83.1886 47.5855 83.1886 49.0918C83.1886 50.5981 81.9675 51.8192 80.4613 51.8192H50.5856C49.0793 51.8192 47.8582 50.5981 47.8582 49.0918Z" fill="#D9D9D9"/>
<ellipse cx="29.584" cy="49.0918" rx="8.52805" ry="9.54592" fill="#D9D9D9"/>
<g clip-path="url(#clip0_77_641)">
<rect x="49" y="156" width="216" height="40" rx="20" fill="#6750A4"/>
<path d="M128.466 175.734V181.164C128.265 181.431 127.949 181.724 127.519 182.043C127.096 182.355 126.533 182.626 125.83 182.854C125.127 183.081 124.251 183.195 123.203 183.195C122.311 183.195 121.494 183.046 120.752 182.746C120.009 182.44 119.368 181.994 118.828 181.408C118.294 180.822 117.88 180.109 117.588 179.27C117.295 178.423 117.148 177.46 117.148 176.379V175.393C117.148 174.318 117.282 173.361 117.548 172.521C117.822 171.675 118.213 170.959 118.72 170.373C119.228 169.787 119.84 169.344 120.556 169.045C121.279 168.739 122.096 168.586 123.007 168.586C124.173 168.586 125.136 168.781 125.898 169.172C126.666 169.556 127.259 170.09 127.675 170.773C128.092 171.457 128.356 172.238 128.466 173.117H126.064C125.986 172.622 125.833 172.18 125.605 171.789C125.384 171.398 125.065 171.092 124.648 170.871C124.238 170.643 123.704 170.529 123.046 170.529C122.48 170.529 121.982 170.637 121.552 170.852C121.123 171.066 120.765 171.382 120.478 171.799C120.198 172.215 119.987 172.723 119.843 173.322C119.7 173.921 119.629 174.605 119.629 175.373V176.379C119.629 177.16 119.71 177.854 119.873 178.459C120.042 179.064 120.283 179.576 120.595 179.992C120.914 180.409 121.302 180.725 121.757 180.939C122.213 181.148 122.727 181.252 123.3 181.252C123.86 181.252 124.319 181.206 124.677 181.115C125.035 181.018 125.319 180.904 125.527 180.773C125.742 180.637 125.908 180.507 126.025 180.383V177.561H123.066V175.734H128.466ZM135.705 183.195C134.924 183.195 134.217 183.068 133.586 182.814C132.961 182.554 132.427 182.193 131.984 181.73C131.548 181.268 131.213 180.725 130.979 180.1C130.744 179.475 130.627 178.801 130.627 178.078V177.688C130.627 176.861 130.747 176.112 130.988 175.441C131.229 174.771 131.564 174.198 131.994 173.723C132.424 173.241 132.932 172.873 133.518 172.619C134.104 172.365 134.738 172.238 135.422 172.238C136.177 172.238 136.838 172.365 137.404 172.619C137.971 172.873 138.439 173.231 138.811 173.693C139.188 174.149 139.468 174.693 139.65 175.324C139.839 175.956 139.934 176.652 139.934 177.414V178.42H131.77V176.73H137.609V176.545C137.596 176.122 137.512 175.725 137.355 175.354C137.206 174.982 136.975 174.683 136.662 174.455C136.35 174.227 135.933 174.113 135.412 174.113C135.021 174.113 134.673 174.198 134.367 174.367C134.068 174.53 133.817 174.768 133.615 175.08C133.413 175.393 133.257 175.77 133.146 176.213C133.042 176.649 132.99 177.141 132.99 177.688V178.078C132.99 178.54 133.052 178.97 133.176 179.367C133.306 179.758 133.495 180.1 133.742 180.393C133.99 180.686 134.289 180.917 134.641 181.086C134.992 181.249 135.393 181.33 135.842 181.33C136.408 181.33 136.913 181.216 137.355 180.988C137.798 180.76 138.182 180.438 138.508 180.021L139.748 181.223C139.52 181.555 139.224 181.874 138.859 182.18C138.495 182.479 138.049 182.723 137.521 182.912C137.001 183.101 136.395 183.195 135.705 183.195ZM144.204 174.689V183H141.85V172.434H144.067L144.204 174.689ZM143.784 177.326L143.022 177.316C143.028 176.568 143.133 175.881 143.334 175.256C143.543 174.631 143.829 174.094 144.194 173.645C144.565 173.195 145.008 172.85 145.522 172.609C146.036 172.362 146.609 172.238 147.241 172.238C147.748 172.238 148.207 172.31 148.618 172.453C149.034 172.59 149.389 172.814 149.682 173.127C149.982 173.439 150.209 173.846 150.366 174.348C150.522 174.842 150.6 175.451 150.6 176.174V183H148.237V176.164C148.237 175.656 148.162 175.256 148.012 174.963C147.869 174.663 147.657 174.452 147.377 174.328C147.104 174.198 146.762 174.133 146.352 174.133C145.948 174.133 145.587 174.217 145.268 174.387C144.949 174.556 144.679 174.787 144.457 175.08C144.243 175.373 144.077 175.712 143.959 176.096C143.842 176.48 143.784 176.89 143.784 177.326ZM157.761 183.195C156.979 183.195 156.273 183.068 155.641 182.814C155.016 182.554 154.483 182.193 154.04 181.73C153.604 181.268 153.268 180.725 153.034 180.1C152.8 179.475 152.682 178.801 152.682 178.078V177.688C152.682 176.861 152.803 176.112 153.044 175.441C153.285 174.771 153.62 174.198 154.05 173.723C154.479 173.241 154.987 172.873 155.573 172.619C156.159 172.365 156.794 172.238 157.477 172.238C158.233 172.238 158.893 172.365 159.46 172.619C160.026 172.873 160.495 173.231 160.866 173.693C161.244 174.149 161.524 174.693 161.706 175.324C161.895 175.956 161.989 176.652 161.989 177.414V178.42H153.825V176.73H159.665V176.545C159.652 176.122 159.567 175.725 159.411 175.354C159.261 174.982 159.03 174.683 158.718 174.455C158.405 174.227 157.988 174.113 157.468 174.113C157.077 174.113 156.729 174.198 156.423 174.367C156.123 174.53 155.873 174.768 155.671 175.08C155.469 175.393 155.313 175.77 155.202 176.213C155.098 176.649 155.046 177.141 155.046 177.688V178.078C155.046 178.54 155.108 178.97 155.231 179.367C155.361 179.758 155.55 180.1 155.798 180.393C156.045 180.686 156.345 180.917 156.696 181.086C157.048 181.249 157.448 181.33 157.897 181.33C158.464 181.33 158.968 181.216 159.411 180.988C159.854 180.76 160.238 180.438 160.563 180.021L161.804 181.223C161.576 181.555 161.279 181.874 160.915 182.18C160.55 182.479 160.104 182.723 159.577 182.912C159.056 183.101 158.451 183.195 157.761 183.195ZM166.288 174.445V183H163.935V172.434H166.181L166.288 174.445ZM169.521 172.365L169.501 174.553C169.358 174.527 169.202 174.507 169.032 174.494C168.87 174.481 168.707 174.475 168.544 174.475C168.14 174.475 167.786 174.533 167.48 174.65C167.174 174.761 166.917 174.924 166.708 175.139C166.506 175.347 166.35 175.601 166.239 175.9C166.129 176.2 166.064 176.535 166.044 176.906L165.507 176.945C165.507 176.281 165.572 175.666 165.702 175.1C165.833 174.533 166.028 174.035 166.288 173.605C166.555 173.176 166.887 172.84 167.284 172.6C167.688 172.359 168.154 172.238 168.681 172.238C168.824 172.238 168.977 172.251 169.14 172.277C169.309 172.303 169.436 172.333 169.521 172.365ZM176.701 180.881V175.842C176.701 175.464 176.632 175.139 176.496 174.865C176.359 174.592 176.151 174.38 175.871 174.23C175.597 174.081 175.252 174.006 174.836 174.006C174.451 174.006 174.119 174.071 173.839 174.201C173.56 174.331 173.341 174.507 173.185 174.729C173.029 174.95 172.951 175.201 172.951 175.48H170.607C170.607 175.064 170.708 174.66 170.91 174.27C171.112 173.879 171.405 173.531 171.789 173.225C172.173 172.919 172.632 172.678 173.166 172.502C173.699 172.326 174.298 172.238 174.963 172.238C175.757 172.238 176.46 172.372 177.072 172.639C177.69 172.906 178.175 173.309 178.527 173.85C178.885 174.383 179.064 175.054 179.064 175.861V180.559C179.064 181.04 179.097 181.473 179.162 181.857C179.233 182.235 179.334 182.564 179.464 182.844V183H177.052C176.942 182.746 176.854 182.424 176.789 182.033C176.73 181.636 176.701 181.252 176.701 180.881ZM177.043 176.574L177.062 178.029H175.373C174.936 178.029 174.552 178.072 174.22 178.156C173.888 178.234 173.612 178.352 173.39 178.508C173.169 178.664 173.003 178.853 172.892 179.074C172.782 179.296 172.726 179.546 172.726 179.826C172.726 180.106 172.791 180.363 172.921 180.598C173.052 180.826 173.24 181.005 173.488 181.135C173.742 181.265 174.048 181.33 174.406 181.33C174.888 181.33 175.308 181.232 175.666 181.037C176.03 180.835 176.317 180.591 176.525 180.305C176.733 180.012 176.844 179.735 176.857 179.475L177.619 180.52C177.541 180.786 177.407 181.073 177.218 181.379C177.03 181.685 176.782 181.978 176.476 182.258C176.177 182.531 175.815 182.756 175.392 182.932C174.976 183.107 174.494 183.195 173.947 183.195C173.257 183.195 172.642 183.059 172.101 182.785C171.561 182.505 171.138 182.131 170.832 181.662C170.526 181.187 170.373 180.65 170.373 180.051C170.373 179.491 170.477 178.996 170.685 178.566C170.9 178.13 171.213 177.766 171.623 177.473C172.039 177.18 172.547 176.958 173.146 176.809C173.745 176.652 174.429 176.574 175.197 176.574H177.043ZM186.469 172.434V174.152H180.512V172.434H186.469ZM182.23 169.846H184.584V180.08C184.584 180.406 184.63 180.656 184.721 180.832C184.818 181.001 184.952 181.115 185.121 181.174C185.29 181.232 185.489 181.262 185.717 181.262C185.88 181.262 186.036 181.252 186.186 181.232C186.335 181.213 186.456 181.193 186.547 181.174L186.557 182.971C186.361 183.029 186.133 183.081 185.873 183.127C185.619 183.173 185.326 183.195 184.994 183.195C184.454 183.195 183.975 183.101 183.559 182.912C183.142 182.717 182.816 182.401 182.582 181.965C182.348 181.529 182.23 180.949 182.23 180.227V169.846ZM193.043 183.195C192.262 183.195 191.556 183.068 190.924 182.814C190.299 182.554 189.765 182.193 189.323 181.73C188.886 181.268 188.551 180.725 188.317 180.1C188.082 179.475 187.965 178.801 187.965 178.078V177.688C187.965 176.861 188.086 176.112 188.327 175.441C188.567 174.771 188.903 174.198 189.332 173.723C189.762 173.241 190.27 172.873 190.856 172.619C191.442 172.365 192.077 172.238 192.76 172.238C193.515 172.238 194.176 172.365 194.743 172.619C195.309 172.873 195.778 173.231 196.149 173.693C196.526 174.149 196.806 174.693 196.989 175.324C197.177 175.956 197.272 176.652 197.272 177.414V178.42H189.108V176.73H194.948V176.545C194.935 176.122 194.85 175.725 194.694 175.354C194.544 174.982 194.313 174.683 194 174.455C193.688 174.227 193.271 174.113 192.75 174.113C192.36 174.113 192.011 174.198 191.705 174.367C191.406 174.53 191.155 174.768 190.954 175.08C190.752 175.393 190.595 175.77 190.485 176.213C190.381 176.649 190.329 177.141 190.329 177.688V178.078C190.329 178.54 190.39 178.97 190.514 179.367C190.644 179.758 190.833 180.1 191.08 180.393C191.328 180.686 191.627 180.917 191.979 181.086C192.33 181.249 192.731 181.33 193.18 181.33C193.746 181.33 194.251 181.216 194.694 180.988C195.136 180.76 195.521 180.438 195.846 180.021L197.086 181.223C196.858 181.555 196.562 181.874 196.198 182.18C195.833 182.479 195.387 182.723 194.86 182.912C194.339 183.101 193.733 183.195 193.043 183.195Z" fill="white"/>
</g>
<path d="M147.984 459.548L146.314 460.649L146.387 460.76L146.474 460.86L147.984 459.548ZM210.5 559.5L201.822 538.099L187.627 556.315L210.5 559.5ZM121.028 391.336C121.241 392.582 121.45 393.797 121.658 394.985L125.598 394.296C125.392 393.115 125.183 391.905 124.972 390.664L121.028 391.336ZM122.978 402.265C123.461 404.817 123.941 407.234 124.43 409.537L128.343 408.707C127.862 406.438 127.387 404.051 126.909 401.522L122.978 402.265ZM126.09 416.786C126.716 419.3 127.368 421.686 128.064 423.986L131.892 422.827C131.218 420.599 130.583 418.277 129.972 415.82L126.09 416.786ZM130.461 431.091C131.342 433.441 132.294 435.734 133.34 438.023L136.978 436.36C135.971 434.156 135.054 431.949 134.206 429.687L130.461 431.091ZM136.675 444.735C137.806 446.849 139.029 448.998 140.359 451.221L143.791 449.168C142.49 446.991 141.298 444.898 140.201 442.848L136.675 444.735ZM144.284 457.533C144.938 458.55 145.614 459.588 146.314 460.649L149.653 458.447C148.962 457.398 148.294 456.373 147.649 455.37L144.284 457.533ZM146.474 460.86C147.444 461.975 148.416 463.025 149.39 464.014L152.239 461.206C151.325 460.279 150.409 459.29 149.493 458.236L146.474 460.86ZM155.902 469.709C158.417 471.57 160.929 473.051 163.416 474.183L165.073 470.542C162.86 469.535 160.588 468.2 158.282 466.493L155.902 469.709ZM171.888 476.755C174.997 477.232 177.996 477.178 180.829 476.68L180.136 472.74C177.734 473.163 175.173 473.212 172.495 472.801L171.888 476.755ZM189.274 473.659C191.916 472.177 194.269 470.279 196.265 468.092L193.311 465.395C191.591 467.279 189.572 468.905 187.317 470.17L189.274 473.659ZM201.186 460.642C202.433 457.898 203.233 454.964 203.498 451.975L199.513 451.622C199.29 454.137 198.615 456.633 197.545 458.987L201.186 460.642ZM202.599 442.976C202.166 441.542 201.588 440.132 200.856 438.763L197.328 440.648C197.935 441.783 198.412 442.948 198.77 444.132L202.599 442.976ZM200.856 438.763C200.182 437.502 199.484 436.323 198.762 435.223L195.417 437.417C196.07 438.412 196.708 439.487 197.328 440.648L200.856 438.763ZM193.45 428.837C191.191 426.739 188.811 425.2 186.377 424.148L184.79 427.82C186.785 428.682 188.785 429.963 190.727 431.768L193.45 428.837ZM177.995 422.345C175.053 422.298 172.212 422.83 169.601 423.749L170.928 427.522C173.143 426.743 175.513 426.306 177.932 426.344L177.995 422.345ZM162.175 427.774C161.009 428.669 159.95 429.638 159.024 430.651L161.976 433.349C162.736 432.518 163.621 431.706 164.61 430.947L162.175 427.774ZM159.024 430.651C158.029 431.739 157.252 433.171 156.637 434.782L160.375 436.207C160.885 434.87 161.439 433.938 161.976 433.349L159.024 430.651ZM154.771 443.149C154.474 445.691 154.322 448.494 154.317 451.478L158.317 451.484C158.321 448.627 158.467 445.98 158.744 443.614L154.771 443.149ZM154.649 459.733C154.859 462.391 155.169 465.135 155.584 467.924L159.54 467.336C159.139 464.636 158.839 461.983 158.636 459.418L154.649 459.733ZM157.062 476.023C157.641 478.689 158.314 481.364 159.085 484.014L162.926 482.897C162.182 480.339 161.531 477.754 160.971 475.175L157.062 476.023ZM161.691 491.851C162.674 494.457 163.763 497.008 164.961 499.467L168.557 497.715C167.418 495.377 166.377 492.94 165.433 490.438L161.691 491.851ZM169.02 506.745C169.779 507.931 170.57 509.082 171.394 510.192L174.606 507.808C173.84 506.776 173.101 505.702 172.39 504.59L169.02 506.745ZM171.394 510.192C172.18 511.251 172.955 512.306 173.719 513.358L176.955 511.007C176.184 509.945 175.4 508.878 174.606 507.808L171.394 510.192ZM178.277 519.754C179.813 521.95 181.3 524.113 182.74 526.229L186.047 523.979C184.6 521.852 183.102 519.674 181.554 517.461L178.277 519.754ZM187.143 532.758C188.662 535.026 190.128 537.224 191.531 539.313L194.852 537.083C193.449 534.995 191.992 532.81 190.466 530.532L187.143 532.758ZM195.987 545.861C197.63 548.228 199.19 550.402 200.667 552.333L203.844 549.903C202.418 548.039 200.897 545.92 199.273 543.58L195.987 545.861Z" fill="white"/>
<defs>
<clipPath id="clip0_77_641">
<rect x="49" y="156" width="216" height="40" rx="20" fill="white"/>
</clipPath>
</defs>
</svg>
