<svg class="post"  viewBox="0 0 520 578" fill="none" xmlns="http://www.w3.org/2000/svg">
<g filter="url(#filter0_d_45_107)">
<rect x="5" y="5" width="500" height="558" rx="10" fill="#F5F5F5"/>
</g>
<g clip-path="url(#clip0_45_107)">
<rect x="115" y="166" width="276" height="46" rx="23" fill="#6750A4"/>
<path d="M227.285 188.461V193.348C227.103 193.588 226.819 193.852 226.432 194.139C226.051 194.42 225.545 194.663 224.912 194.868C224.279 195.073 223.491 195.176 222.547 195.176C221.745 195.176 221.009 195.041 220.341 194.771C219.673 194.496 219.096 194.095 218.61 193.567C218.129 193.04 217.757 192.398 217.494 191.643C217.23 190.881 217.098 190.014 217.098 189.041V188.153C217.098 187.187 217.218 186.325 217.459 185.569C217.705 184.808 218.056 184.163 218.513 183.636C218.97 183.108 219.521 182.71 220.166 182.44C220.816 182.165 221.551 182.027 222.372 182.027C223.421 182.027 224.288 182.203 224.973 182.555C225.665 182.9 226.198 183.381 226.573 183.996C226.948 184.611 227.185 185.314 227.285 186.105H225.123C225.052 185.66 224.915 185.262 224.71 184.91C224.51 184.559 224.223 184.283 223.848 184.084C223.479 183.879 222.999 183.776 222.407 183.776C221.897 183.776 221.449 183.873 221.062 184.066C220.675 184.26 220.353 184.544 220.095 184.919C219.843 185.294 219.653 185.751 219.524 186.29C219.395 186.829 219.331 187.444 219.331 188.136V189.041C219.331 189.744 219.404 190.368 219.55 190.913C219.703 191.458 219.92 191.918 220.201 192.293C220.488 192.668 220.837 192.952 221.247 193.146C221.657 193.333 222.12 193.427 222.635 193.427C223.139 193.427 223.552 193.386 223.875 193.304C224.197 193.216 224.452 193.113 224.639 192.996C224.833 192.873 224.982 192.756 225.088 192.645V190.104H222.424V188.461H227.285ZM233.81 195.176C233.106 195.176 232.471 195.062 231.902 194.833C231.34 194.599 230.859 194.273 230.461 193.857C230.068 193.441 229.767 192.952 229.556 192.39C229.345 191.827 229.239 191.221 229.239 190.57V190.219C229.239 189.475 229.348 188.801 229.564 188.197C229.781 187.594 230.083 187.078 230.47 186.65C230.856 186.217 231.313 185.886 231.841 185.657C232.368 185.429 232.939 185.314 233.555 185.314C234.234 185.314 234.829 185.429 235.339 185.657C235.849 185.886 236.271 186.208 236.604 186.624C236.944 187.034 237.196 187.523 237.36 188.092C237.53 188.66 237.615 189.287 237.615 189.973V190.878H230.268V189.357H235.523V189.19C235.512 188.81 235.436 188.452 235.295 188.118C235.16 187.784 234.952 187.515 234.671 187.31C234.39 187.104 234.015 187.002 233.546 187.002C233.194 187.002 232.881 187.078 232.605 187.23C232.336 187.377 232.11 187.591 231.929 187.872C231.747 188.153 231.606 188.493 231.507 188.892C231.413 189.284 231.366 189.727 231.366 190.219V190.57C231.366 190.986 231.422 191.373 231.533 191.73C231.65 192.082 231.82 192.39 232.043 192.653C232.266 192.917 232.535 193.125 232.852 193.277C233.168 193.424 233.528 193.497 233.933 193.497C234.442 193.497 234.896 193.395 235.295 193.189C235.693 192.984 236.039 192.694 236.332 192.319L237.448 193.4C237.243 193.699 236.977 193.986 236.648 194.262C236.32 194.531 235.919 194.751 235.444 194.921C234.976 195.091 234.431 195.176 233.81 195.176ZM241.468 187.521V195H239.35V185.49H241.345L241.468 187.521ZM241.09 189.894L240.405 189.885C240.411 189.211 240.504 188.593 240.686 188.03C240.873 187.468 241.131 186.984 241.459 186.58C241.793 186.176 242.192 185.865 242.655 185.648C243.118 185.426 243.633 185.314 244.202 185.314C244.659 185.314 245.072 185.379 245.441 185.508C245.816 185.631 246.135 185.833 246.399 186.114C246.668 186.396 246.873 186.762 247.014 187.213C247.155 187.658 247.225 188.206 247.225 188.856V195H245.098V188.848C245.098 188.391 245.031 188.03 244.896 187.767C244.767 187.497 244.577 187.307 244.325 187.195C244.079 187.078 243.771 187.02 243.402 187.02C243.038 187.02 242.713 187.096 242.426 187.248C242.139 187.4 241.896 187.608 241.697 187.872C241.503 188.136 241.354 188.44 241.248 188.786C241.143 189.132 241.09 189.501 241.09 189.894ZM253.679 195.176C252.976 195.176 252.341 195.062 251.772 194.833C251.21 194.599 250.729 194.273 250.331 193.857C249.938 193.441 249.637 192.952 249.426 192.39C249.215 191.827 249.109 191.221 249.109 190.57V190.219C249.109 189.475 249.218 188.801 249.434 188.197C249.651 187.594 249.953 187.078 250.34 186.65C250.726 186.217 251.183 185.886 251.711 185.657C252.238 185.429 252.809 185.314 253.425 185.314C254.104 185.314 254.699 185.429 255.209 185.657C255.719 185.886 256.14 186.208 256.474 186.624C256.814 187.034 257.066 187.523 257.23 188.092C257.4 188.66 257.485 189.287 257.485 189.973V190.878H250.138V189.357H255.393V189.19C255.382 188.81 255.305 188.452 255.165 188.118C255.03 187.784 254.822 187.515 254.541 187.31C254.26 187.104 253.885 187.002 253.416 187.002C253.064 187.002 252.751 187.078 252.475 187.23C252.206 187.377 251.98 187.591 251.799 187.872C251.617 188.153 251.476 188.493 251.377 188.892C251.283 189.284 251.236 189.727 251.236 190.219V190.57C251.236 190.986 251.292 191.373 251.403 191.73C251.52 192.082 251.69 192.39 251.913 192.653C252.136 192.917 252.405 193.125 252.721 193.277C253.038 193.424 253.398 193.497 253.803 193.497C254.312 193.497 254.766 193.395 255.165 193.189C255.563 192.984 255.909 192.694 256.202 192.319L257.318 193.4C257.113 193.699 256.846 193.986 256.518 194.262C256.19 194.531 255.789 194.751 255.314 194.921C254.846 195.091 254.301 195.176 253.679 195.176ZM261.364 187.301V195H259.246V185.49H261.268L261.364 187.301ZM264.274 185.429L264.256 187.397C264.127 187.374 263.987 187.356 263.834 187.345C263.688 187.333 263.541 187.327 263.395 187.327C263.031 187.327 262.712 187.38 262.437 187.485C262.161 187.585 261.93 187.731 261.742 187.925C261.561 188.112 261.42 188.341 261.321 188.61C261.221 188.88 261.162 189.182 261.145 189.516L260.661 189.551C260.661 188.953 260.72 188.399 260.837 187.89C260.954 187.38 261.13 186.932 261.364 186.545C261.605 186.158 261.904 185.856 262.261 185.64C262.624 185.423 263.043 185.314 263.518 185.314C263.647 185.314 263.784 185.326 263.931 185.35C264.083 185.373 264.197 185.399 264.274 185.429ZM270.746 193.093V188.558C270.746 188.218 270.684 187.925 270.561 187.679C270.438 187.433 270.251 187.242 269.999 187.107C269.753 186.973 269.442 186.905 269.067 186.905C268.721 186.905 268.422 186.964 268.171 187.081C267.919 187.198 267.722 187.356 267.582 187.556C267.441 187.755 267.371 187.98 267.371 188.232H265.261C265.261 187.857 265.352 187.494 265.534 187.143C265.715 186.791 265.979 186.478 266.325 186.202C266.671 185.927 267.084 185.71 267.564 185.552C268.045 185.394 268.584 185.314 269.181 185.314C269.896 185.314 270.529 185.435 271.08 185.675C271.636 185.915 272.073 186.278 272.389 186.765C272.712 187.245 272.873 187.849 272.873 188.575V192.803C272.873 193.236 272.902 193.626 272.961 193.972C273.025 194.312 273.116 194.607 273.233 194.859V195H271.062C270.963 194.771 270.883 194.481 270.825 194.13C270.772 193.772 270.746 193.427 270.746 193.093ZM271.053 189.217L271.071 190.526H269.55C269.158 190.526 268.812 190.564 268.513 190.641C268.214 190.711 267.965 190.816 267.766 190.957C267.567 191.098 267.418 191.268 267.318 191.467C267.218 191.666 267.169 191.892 267.169 192.144C267.169 192.396 267.227 192.627 267.344 192.838C267.462 193.043 267.631 193.204 267.854 193.321C268.083 193.438 268.358 193.497 268.68 193.497C269.114 193.497 269.492 193.409 269.814 193.233C270.142 193.052 270.4 192.832 270.588 192.574C270.775 192.311 270.875 192.062 270.886 191.827L271.572 192.768C271.502 193.008 271.381 193.266 271.212 193.541C271.042 193.816 270.819 194.08 270.544 194.332C270.274 194.578 269.949 194.78 269.568 194.938C269.193 195.097 268.759 195.176 268.267 195.176C267.646 195.176 267.092 195.053 266.606 194.807C266.12 194.555 265.739 194.218 265.463 193.796C265.188 193.368 265.05 192.885 265.05 192.346C265.05 191.842 265.144 191.396 265.332 191.01C265.525 190.617 265.806 190.289 266.175 190.025C266.55 189.762 267.007 189.562 267.546 189.428C268.086 189.287 268.701 189.217 269.392 189.217H271.053ZM279.547 185.49V187.037H274.186V185.49H279.547ZM275.732 183.161H277.851V192.372C277.851 192.665 277.892 192.891 277.974 193.049C278.062 193.201 278.182 193.304 278.334 193.356C278.486 193.409 278.665 193.436 278.87 193.436C279.017 193.436 279.157 193.427 279.292 193.409C279.427 193.392 279.535 193.374 279.617 193.356L279.626 194.974C279.45 195.026 279.245 195.073 279.011 195.114C278.782 195.155 278.519 195.176 278.22 195.176C277.733 195.176 277.303 195.091 276.928 194.921C276.553 194.745 276.26 194.461 276.049 194.068C275.838 193.676 275.732 193.154 275.732 192.504V183.161ZM285.474 195.176C284.771 195.176 284.135 195.062 283.567 194.833C283.004 194.599 282.524 194.273 282.125 193.857C281.733 193.441 281.431 192.952 281.22 192.39C281.009 191.827 280.904 191.221 280.904 190.57V190.219C280.904 189.475 281.012 188.801 281.229 188.197C281.446 187.594 281.747 187.078 282.134 186.65C282.521 186.217 282.978 185.886 283.505 185.657C284.033 185.429 284.604 185.314 285.219 185.314C285.899 185.314 286.494 185.429 287.003 185.657C287.513 185.886 287.935 186.208 288.269 186.624C288.609 187.034 288.861 187.523 289.025 188.092C289.195 188.66 289.28 189.287 289.28 189.973V190.878H281.932V189.357H287.188V189.19C287.176 188.81 287.1 188.452 286.959 188.118C286.825 187.784 286.617 187.515 286.335 187.31C286.054 187.104 285.679 187.002 285.21 187.002C284.859 187.002 284.545 187.078 284.27 187.23C284 187.377 283.775 187.591 283.593 187.872C283.412 188.153 283.271 188.493 283.171 188.892C283.078 189.284 283.031 189.727 283.031 190.219V190.57C283.031 190.986 283.086 191.373 283.198 191.73C283.315 192.082 283.485 192.39 283.707 192.653C283.93 192.917 284.2 193.125 284.516 193.277C284.832 193.424 285.193 193.497 285.597 193.497C286.107 193.497 286.561 193.395 286.959 193.189C287.358 192.984 287.704 192.694 287.996 192.319L289.113 193.4C288.908 193.699 288.641 193.986 288.313 194.262C287.985 194.531 287.583 194.751 287.109 194.921C286.64 195.091 286.095 195.176 285.474 195.176Z" fill="white"/>
</g>
<path d="M48 71C48 67.6863 50.6863 65 54 65H386.485C389.799 65 392.485 67.6863 392.485 71C392.485 74.3137 389.799 77 386.485 77H54C50.6863 77 48 74.3137 48 71Z" fill="#D9D9D9"/>
<path d="M48 88C48 84.6863 50.6863 82 54 82H246.538C249.852 82 252.538 84.6863 252.538 88C252.538 91.3137 249.852 94 246.538 94H54C50.6863 94 48 91.3137 48 88Z" fill="#D9D9D9"/>
<path d="M48 105C48 101.686 50.6863 99 54 99H352.652C355.965 99 358.652 101.686 358.652 105C358.652 108.314 355.965 111 352.652 111H54C50.6863 111 48 108.314 48 105Z" fill="#D9D9D9"/>
<path d="M48 122C48 118.686 50.6863 116 54 116H314.205C317.518 116 320.205 118.686 320.205 122C320.205 125.314 317.518 128 314.205 128H54C50.6863 128 48 125.314 48 122Z" fill="#D9D9D9"/>
<path d="M48 139C48 135.686 50.6863 133 54 133H448C451.314 133 454 135.686 454 139C454 142.314 451.314 145 448 145H54C50.6863 145 48 142.314 48 139Z" fill="#D9D9D9"/>
<rect x="130" y="292" width="250" height="243" fill="white"/>
<path d="M144 509C144 507.895 144.895 507 146 507H327C328.105 507 329 507.895 329 509C329 510.105 328.105 511 327 511H146C144.895 511 144 510.105 144 509Z" fill="#D9D9D9"/>
<path d="M144 516C144 514.895 144.895 514 146 514H297C298.105 514 299 514.895 299 516C299 517.105 298.105 518 297 518H146C144.895 518 144 517.105 144 516Z" fill="#D9D9D9"/>
<path d="M144 488C144 486.895 144.895 486 146 486H331C332.105 486 333 486.895 333 488C333 489.105 332.105 490 331 490H146C144.895 490 144 489.105 144 488Z" fill="#D9D9D9"/>
<path d="M144 502C144 500.895 144.895 500 146 500H251C252.105 500 253 500.895 253 502C253 503.105 252.105 504 251 504H146C144.895 504 144 503.105 144 502Z" fill="#D9D9D9"/>
<path d="M144 495C144 493.895 144.895 493 146 493H309C310.105 493 311 493.895 311 495C311 496.105 310.105 497 309 497H146C144.895 497 144 496.105 144 495Z" fill="#D9D9D9"/>
<path d="M144 317H367V451H144V317Z" fill="#BF89F4" fill-opacity="0.42"/>
<path d="M357 463.219C357 462.546 357.56 462 358.25 462V463.219V473.209L361.638 470.849C361.854 470.697 362.148 470.697 362.365 470.849L365.75 473.209V463.219H358.25V462H365.75C366.44 462 367 462.546 367 463.219V474.392C367 474.62 366.87 474.829 366.661 474.933C366.453 475.037 366.203 475.019 366.013 474.887L362 472.094L357.987 474.887C357.797 475.019 357.547 475.037 357.339 474.933C357.13 474.829 357 474.62 357 474.392V463.219Z" fill="black"/>
<path d="M200 463.597C200 463.59 200 463.583 200 463.576C199.999 463.558 199.997 463.54 199.994 463.523C199.993 463.517 199.993 463.512 199.992 463.506C199.987 463.484 199.98 463.463 199.971 463.442C199.968 463.436 199.965 463.43 199.962 463.424C199.955 463.408 199.946 463.393 199.936 463.378C199.932 463.372 199.928 463.366 199.923 463.359C199.909 463.34 199.893 463.321 199.874 463.304C199.855 463.287 199.835 463.272 199.813 463.258C199.807 463.254 199.801 463.251 199.795 463.247C199.778 463.237 199.76 463.229 199.742 463.222C199.736 463.219 199.731 463.217 199.725 463.215C199.702 463.206 199.678 463.199 199.654 463.195C199.649 463.194 199.644 463.194 199.64 463.193C199.619 463.19 199.599 463.188 199.578 463.188C199.571 463.187 199.564 463.187 199.557 463.188C199.537 463.188 199.517 463.19 199.496 463.193C199.491 463.194 199.486 463.194 199.481 463.195C199.459 463.199 199.437 463.205 199.415 463.212L187.281 467.415C187.119 467.472 187.008 467.612 187 467.772C186.993 467.932 187.089 468.081 187.245 468.15L192.222 470.367L194.624 474.961C194.696 475.1 194.848 475.188 195.014 475.188C195.021 475.188 195.027 475.187 195.034 475.187C195.207 475.18 195.359 475.078 195.42 474.928L199.973 463.727C199.981 463.707 199.987 463.687 199.992 463.667C199.993 463.661 199.993 463.656 199.994 463.651C199.997 463.633 199.999 463.615 200 463.597ZM197.846 464.61L192.458 469.584L188.534 467.836L197.846 464.61ZM194.964 473.772L193.071 470.15L198.459 465.176L194.964 473.772Z" fill="black"/>
<path d="M169.138 471.123C169.466 470.884 169.89 470.823 170.271 470.96C170.943 471.204 171.698 471.344 172.5 471.344C175.666 471.344 177.781 469.3 177.781 467.281C177.781 465.263 175.666 463.219 172.5 463.219C169.334 463.219 167.219 465.263 167.219 467.281C167.219 468.094 167.533 468.876 168.125 469.546C168.343 469.792 168.45 470.117 168.425 470.447C168.389 470.907 168.28 471.329 168.138 471.702C168.569 471.501 168.927 471.278 169.138 471.125V471.123ZM166.538 472.154C166.584 472.085 166.627 472.017 166.668 471.948C166.922 471.527 167.163 470.973 167.211 470.351C166.449 469.485 166 468.426 166 467.281C166 464.364 168.91 462 172.5 462C176.09 462 179 464.364 179 467.281C179 470.199 176.09 472.562 172.5 472.562C171.558 472.562 170.664 472.4 169.857 472.108C169.555 472.329 169.062 472.631 168.478 472.885C168.095 473.053 167.658 473.205 167.206 473.294C167.186 473.299 167.165 473.301 167.145 473.306C167.033 473.327 166.924 473.345 166.81 473.355C166.805 473.355 166.797 473.357 166.792 473.357C166.663 473.37 166.533 473.378 166.404 473.378C166.239 473.378 166.091 473.279 166.028 473.126C165.964 472.974 166 472.801 166.114 472.684C166.218 472.578 166.312 472.463 166.401 472.342C166.444 472.283 166.485 472.225 166.523 472.166C166.525 472.161 166.528 472.159 166.531 472.154H166.538Z" fill="black"/>
<path d="M149.733 473.075L149.67 473.017L145.221 468.886C144.442 468.162 144 467.147 144 466.083V465.999C144 464.212 145.27 462.678 147.027 462.343C148.027 462.15 149.05 462.381 149.865 462.955C150.094 463.117 150.307 463.305 150.5 463.521C150.607 463.399 150.721 463.287 150.843 463.183C150.937 463.102 151.033 463.026 151.135 462.955C151.95 462.381 152.973 462.15 153.973 462.34C155.73 462.675 157 464.212 157 465.999V466.083C157 467.147 156.558 468.162 155.779 468.886L151.33 473.017L151.267 473.075C151.059 473.268 150.784 473.378 150.5 473.378C150.216 473.378 149.941 473.271 149.733 473.075ZM150.071 464.869C150.061 464.862 150.053 464.851 150.046 464.841L149.594 464.333L149.591 464.331C149.004 463.673 148.118 463.374 147.255 463.539C146.072 463.765 145.219 464.796 145.219 465.999V466.083C145.219 466.806 145.521 467.5 146.052 467.992L150.5 472.123L154.948 467.992C155.479 467.5 155.781 466.806 155.781 466.083V465.999C155.781 464.798 154.928 463.765 153.747 463.539C152.884 463.374 151.996 463.676 151.412 464.331C151.412 464.331 151.412 464.331 151.409 464.333C151.406 464.336 151.409 464.333 151.406 464.336L150.954 464.844C150.947 464.854 150.937 464.862 150.929 464.872C150.815 464.986 150.66 465.049 150.5 465.049C150.34 465.049 150.185 464.986 150.071 464.872V464.869Z" fill="black"/>
<path d="M166 306C166 304.895 166.895 304 168 304H193C194.105 304 195 304.895 195 306C195 307.105 194.105 308 193 308H168C166.895 308 166 307.105 166 306Z" fill="#D9D9D9"/>
<circle cx="151" cy="306" r="7" fill="#D9D9D9"/>
<path d="M422.471 324.765L440.786 311.49C442.789 310.039 443.236 307.238 441.784 305.236L434.39 295.033C432.938 293.03 430.138 292.584 428.136 294.035L423.385 297.479L415.784 296.266L414.571 303.866L409.82 307.309C407.817 308.761 407.37 311.561 408.822 313.563L416.217 323.767C417.668 325.769 420.468 326.216 422.471 324.765Z" fill="#EE5162"/>
<path d="M422.934 315.716C424.704 315.999 426.368 314.793 426.65 313.023L426.881 311.577L428.327 311.808C430.097 312.09 431.761 310.884 432.043 309.115C432.325 307.345 431.12 305.681 429.35 305.399L427.904 305.168L421.495 304.145L420.472 310.554L420.241 312.001C419.959 313.77 421.165 315.434 422.934 315.716Z" fill="white"/>
<path d="M43.23 491.974L64.598 499.397C66.9342 500.209 69.4864 498.973 70.2979 496.636L74.4327 484.734C75.2444 482.397 74.0082 479.845 71.6719 479.034L66.1291 477.108L62.774 470.181L55.8473 473.536L50.3045 471.61C47.9679 470.799 45.4161 472.035 44.6045 474.371L40.4695 486.275C39.6576 488.611 40.8937 491.163 43.23 491.974Z" fill="#EE5162"/>
<path d="M50.9156 487.176C51.6969 488.789 53.6378 489.464 55.2504 488.682L56.5687 488.044L57.2072 489.362C57.9885 490.975 59.9293 491.649 61.542 490.868C63.155 490.087 63.8292 488.146 63.0478 486.533L62.4093 485.215L59.5805 479.374L53.7394 482.203L52.4211 482.842C50.8086 483.623 50.1344 485.563 50.9156 487.176Z" fill="white"/>
<path d="M448.299 479.686L444.367 457.41C443.937 454.975 441.614 453.349 439.179 453.778L426.77 455.969C424.334 456.399 422.708 458.722 423.138 461.157L424.158 466.936L419.744 473.241L426.05 477.655L427.069 483.433C427.499 485.869 429.823 487.495 432.258 487.065L444.667 484.875C447.103 484.445 448.729 482.122 448.299 479.686Z" fill="#EE5162"/>
<path d="M440.364 475.313C441.392 473.845 441.035 471.822 439.566 470.794L438.366 469.955L439.206 468.755C440.234 467.286 439.877 465.263 438.409 464.235C436.94 463.208 434.917 463.565 433.89 465.033L433.05 466.233L429.328 471.55L434.645 475.272L435.845 476.111C437.313 477.139 439.336 476.782 440.364 475.313Z" fill="white"/>
<path d="M71.0191 317.344L48.4652 319.079C45.9993 319.268 44.1538 321.421 44.3435 323.887L45.3101 336.451C45.4998 338.917 47.6529 340.762 50.1188 340.572L55.9693 340.122L61.8133 345.132L66.8219 339.288L72.6724 338.838C75.1387 338.648 76.9838 336.495 76.7941 334.029L75.8274 321.465C75.6381 318.999 73.485 317.154 71.0191 317.344Z" fill="#EE5162"/>
<path d="M65.8912 324.813C64.5304 323.647 62.4819 323.804 61.3159 325.165L60.3626 326.277L59.2505 325.324C57.8897 324.158 55.8411 324.315 54.6751 325.676C53.5088 327.037 53.6664 329.086 55.0271 330.252L56.1393 331.205L61.0667 335.428L65.2903 330.501L66.2436 329.389C67.4096 328.028 67.252 325.98 65.8912 324.813Z" fill="white"/>
<path d="M64 463.061L67.9892 458.887L62.3801 457.519L64 463.061ZM65.2332 460.208C65.4059 459.553 65.5806 458.911 65.7574 458.282L64.7948 458.011C64.6164 458.646 64.4402 459.293 64.2662 459.953L65.2332 460.208ZM66.3262 456.329C66.5216 455.681 66.7194 455.049 66.9197 454.431L65.9685 454.122C65.766 454.747 65.5661 455.386 65.3688 456.04L66.3262 456.329ZM67.5691 452.505C67.7945 451.863 68.0229 451.238 68.2543 450.631L67.3198 450.275C67.0851 450.891 66.8537 451.523 66.6255 452.174L67.5691 452.505ZM68.9998 448.761C69.2649 448.126 69.5337 447.512 69.8063 446.92L68.8979 446.502C68.62 447.106 68.3464 447.73 68.077 448.376L68.9998 448.761ZM70.6669 445.146C70.9841 444.526 71.3061 443.933 71.633 443.367L70.7669 442.867C70.4311 443.449 70.1011 444.056 69.7767 444.69L70.6669 445.146ZM72.6783 441.67C73.0528 441.102 73.4333 440.566 73.8199 440.062L73.0261 439.453C72.6243 439.978 72.2301 440.533 71.8434 441.12L72.6783 441.67ZM75.0834 438.547C75.5437 438.042 76.012 437.578 76.4884 437.154L75.8231 436.407C75.3195 436.856 74.8267 437.344 74.3446 437.873L75.0834 438.547ZM78.0279 435.937C78.5753 435.557 79.1332 435.224 79.702 434.936L79.2502 434.044C78.6392 434.354 78.0419 434.71 77.4579 435.115L78.0279 435.937ZM81.4963 434.187C82.1113 433.983 82.7396 433.825 83.3818 433.712L83.209 432.727C82.5192 432.848 81.8431 433.018 81.1806 433.239L81.4963 434.187ZM85.3214 433.51C85.96 433.487 86.6124 433.504 87.2791 433.56L87.3631 432.563C86.6586 432.504 85.9659 432.486 85.2849 432.511L85.3214 433.51ZM89.2286 433.828C89.8586 433.946 90.5005 434.096 91.1547 434.278L91.422 433.314C90.7425 433.126 90.073 432.969 89.4134 432.845L89.2286 433.828ZM93.0523 434.879C93.6655 435.096 94.2888 435.338 94.9222 435.605L95.3103 434.684C94.6603 434.41 94.019 434.161 93.3863 433.936L93.0523 434.879ZM96.7359 436.422C97.3214 436.702 97.915 437.002 98.5168 437.32L98.9842 436.436C98.3713 436.112 97.7659 435.807 97.1676 435.52L96.7359 436.422ZM100.282 438.293C100.851 438.619 101.427 438.961 102.01 439.318L102.532 438.465C101.941 438.104 101.357 437.757 100.779 437.426L100.282 438.293ZM103.702 440.384C104.261 440.745 104.825 441.119 105.396 441.505L105.957 440.678C105.38 440.287 104.81 439.909 104.245 439.544L103.702 440.384ZM107.038 442.641C107.58 443.023 108.128 443.416 108.681 443.819L109.27 443.011C108.713 442.605 108.161 442.209 107.614 441.823L107.038 442.641ZM110.299 445.017C110.829 445.415 111.364 445.822 111.903 446.238L112.514 445.446C111.971 445.027 111.433 444.618 110.9 444.217L110.299 445.017ZM113.498 447.481C114.018 447.891 114.543 448.309 115.073 448.735L115.699 447.956C115.167 447.528 114.64 447.108 114.117 446.695L113.498 447.481ZM116.644 450.01C117.158 450.431 117.676 450.859 118.199 451.293L118.838 450.524C118.314 450.088 117.793 449.659 117.277 449.236L116.644 450.01ZM119.748 452.59C120.259 453.02 120.773 453.456 121.291 453.898L121.94 453.138C121.42 452.694 120.905 452.257 120.393 451.826L119.748 452.59ZM122.82 455.21C123.328 455.649 123.84 456.092 124.356 456.541L125.013 455.787C124.496 455.337 123.983 454.892 123.473 454.453L122.82 455.21ZM125.867 457.863C126.374 458.308 126.885 458.758 127.399 459.213L128.061 458.464C127.546 458.008 127.035 457.557 126.527 457.111L125.867 457.863ZM128.896 460.542C129.397 460.988 129.902 461.439 130.41 461.894L131.077 461.149C130.568 460.693 130.063 460.242 129.561 459.795L128.896 460.542ZM131.913 463.243C132.409 463.69 132.908 464.14 133.41 464.594L134.081 463.852C133.578 463.398 133.078 462.947 132.582 462.5L131.913 463.243ZM134.923 465.964C135.414 466.409 135.908 466.859 136.406 467.311L137.079 466.571C136.581 466.119 136.086 465.669 135.595 465.223L134.923 465.964ZM137.906 468.678C138.157 468.908 138.41 469.138 138.663 469.369L139.337 468.631C139.084 468.4 138.832 468.169 138.58 467.94L137.906 468.678Z" fill="black"/>
<path d="M411 292.747L412.198 287.099L406.708 288.885L411 292.747ZM371.447 304.225C371.605 303.909 371.764 303.596 371.922 303.287L371.031 302.832C370.872 303.144 370.713 303.458 370.553 303.775L371.447 304.225ZM372.864 301.472C373.186 300.861 373.507 300.264 373.825 299.681L372.948 299.201C372.627 299.789 372.304 300.39 371.979 301.005L372.864 301.472ZM374.821 297.892C375.163 297.289 375.502 296.702 375.84 296.13L374.979 295.622C374.638 296.199 374.295 296.791 373.951 297.398L374.821 297.892ZM376.891 294.388C377.258 293.793 377.623 293.216 377.985 292.657L377.145 292.113C376.779 292.679 376.411 293.261 376.04 293.862L376.891 294.388ZM379.094 290.987C379.493 290.403 379.888 289.84 380.281 289.299L379.471 288.713C379.073 289.262 378.672 289.832 378.268 290.424L379.094 290.987ZM381.497 287.675C381.92 287.129 382.339 286.608 382.754 286.111L381.987 285.47C381.564 285.976 381.137 286.507 380.706 287.063L381.497 287.675ZM384.094 284.575C384.569 284.055 385.038 283.568 385.501 283.112L384.799 282.4C384.323 282.869 383.842 283.368 383.356 283.901L384.094 284.575ZM386.98 281.742C387.511 281.282 388.033 280.864 388.546 280.487L387.953 279.681C387.417 280.076 386.875 280.51 386.326 280.986L386.98 281.742ZM390.206 279.381C390.804 279.026 391.39 278.725 391.961 278.476L391.562 277.56C390.949 277.826 390.327 278.146 389.695 278.521L390.206 279.381ZM393.821 277.829C394.482 277.658 395.124 277.557 395.746 277.518L395.684 276.52C394.996 276.563 394.291 276.675 393.57 276.861L393.821 277.829ZM397.68 277.601C398.326 277.698 398.951 277.863 399.557 278.09L399.907 277.154C399.239 276.904 398.546 276.72 397.829 276.612L397.68 277.601ZM401.31 278.946C401.863 279.28 402.397 279.666 402.911 280.097L403.553 279.33C403.003 278.869 402.428 278.453 401.828 278.09L401.31 278.946ZM404.348 281.465C404.794 281.944 405.223 282.457 405.634 282.997L406.43 282.391C406.001 281.827 405.551 281.289 405.079 280.783L404.348 281.465ZM406.779 284.643C407.137 285.205 407.478 285.786 407.801 286.38L408.679 285.903C408.346 285.29 407.994 284.689 407.622 284.106L406.779 284.643ZM408.708 288.183C408.993 288.796 409.26 289.416 409.509 290.038L410.438 289.667C410.182 289.028 409.908 288.391 409.614 287.761L408.708 288.183Z" fill="black"/>
<path d="M62 351L60.8801 356.664L66.3451 354.802L62 351ZM62.515 354.013C62.7441 354.658 62.9739 355.293 63.2044 355.917L64.1426 355.571C63.9135 354.95 63.6851 354.319 63.4572 353.678L62.515 354.013ZM63.9134 357.801C64.1561 358.434 64.3999 359.056 64.6448 359.667L65.5731 359.295C65.33 358.688 65.088 358.071 64.8469 357.443L63.9134 357.801ZM65.4112 361.538C65.6753 362.168 65.9409 362.786 66.2083 363.393L67.1235 362.99C66.8586 362.389 66.5953 361.776 66.3334 361.151L65.4112 361.538ZM67.0378 365.229C67.3243 365.847 67.6129 366.452 67.904 367.045L68.8017 366.604C68.514 366.018 68.2284 365.419 67.9449 364.808L67.0378 365.229ZM68.8141 368.846C69.1306 369.453 69.4502 370.048 69.773 370.629L70.6472 370.143C70.3288 369.57 70.0135 368.984 69.701 368.384L68.8141 368.846ZM70.7811 372.383C71.1309 372.971 71.4847 373.545 71.843 374.105L72.6854 373.566C72.3332 373.016 71.985 372.451 71.6406 371.872L70.7811 372.383ZM72.9634 375.791C73.3523 376.354 73.7465 376.901 74.1465 377.435L74.9465 376.835C74.5545 376.312 74.1678 375.775 73.7861 375.222L72.9634 375.791ZM75.396 379.031C75.8285 379.56 76.2679 380.073 76.7146 380.572L77.4595 379.905C77.0231 379.418 76.5934 378.915 76.1701 378.398L75.396 379.031ZM78.1038 382.052C78.5821 382.537 79.0686 383.008 79.5639 383.463L80.2408 382.727C79.7578 382.283 79.2831 381.824 78.8163 381.35L78.1038 382.052ZM81.0934 384.8C81.6156 385.233 82.1474 385.652 82.6892 386.057L83.2877 385.256C82.7595 384.861 82.2411 384.453 81.7321 384.03L81.0934 384.8ZM84.347 387.231C84.9077 387.607 85.4789 387.97 86.061 388.32L86.5764 387.463C86.0082 387.121 85.4509 386.767 84.9041 386.4L84.347 387.231ZM87.8249 389.324C88.4162 389.643 89.0184 389.95 89.6319 390.246L90.0667 389.346C89.4661 389.056 88.8772 388.755 88.2993 388.444L87.8249 389.324ZM91.4755 391.089C92.089 391.354 92.7135 391.61 93.3494 391.857L93.7113 390.925C93.0868 390.683 92.4741 390.431 91.8726 390.171L91.4755 391.089ZM95.2481 392.556C95.8768 392.776 96.5163 392.987 97.167 393.192L97.4669 392.238C96.8257 392.036 96.1961 391.828 95.5776 391.612L95.2481 392.556ZM99.1022 393.77C99.7413 393.952 100.391 394.127 101.051 394.297L101.3 393.328C100.648 393.161 100.006 392.987 99.3753 392.808L99.1022 393.77ZM103.011 394.777C103.658 394.928 104.315 395.075 104.982 395.217L105.19 394.239C104.529 394.098 103.879 393.953 103.239 393.804L103.011 394.777ZM106.962 395.621C107.611 395.747 108.269 395.87 108.938 395.99L109.114 395.005C108.451 394.887 107.797 394.765 107.153 394.639L106.962 395.621ZM110.918 396.331C111.25 396.386 111.584 396.44 111.921 396.494L112.079 395.506C111.744 395.453 111.411 395.399 111.081 395.344L110.918 396.331Z" fill="black"/>
<path d="M414 474L408.374 472.703L410.064 478.224L414 474ZM369.045 518.498C369.394 518.467 369.736 518.431 370.071 518.391L369.953 517.398C369.627 517.437 369.295 517.471 368.955 517.502L369.045 518.498ZM372.042 518.094C372.725 517.968 373.375 517.822 373.996 517.657L373.739 516.691C373.145 516.849 372.52 516.989 371.861 517.111L372.042 518.094ZM375.919 517.05C376.579 516.807 377.199 516.538 377.783 516.244L377.335 515.35C376.785 515.626 376.199 515.881 375.572 516.112L375.919 517.05ZM379.546 515.217C380.125 514.827 380.661 514.41 381.159 513.966L380.494 513.219C380.029 513.633 379.529 514.023 378.988 514.387L379.546 515.217ZM382.586 512.513C383.03 511.997 383.438 511.457 383.815 510.896L382.986 510.338C382.629 510.869 382.245 511.377 381.829 511.86L382.586 512.513ZM384.859 509.163C385.174 508.578 385.468 507.976 385.744 507.359L384.831 506.951C384.563 507.548 384.281 508.128 383.979 508.688L384.859 509.163ZM386.51 505.514C386.746 504.901 386.973 504.277 387.194 503.645L386.251 503.315C386.032 503.94 385.809 504.553 385.577 505.153L386.51 505.514ZM387.832 501.768C388.037 501.151 388.244 500.52 388.453 499.893L387.503 499.578C387.293 500.212 387.089 500.833 386.883 501.453L387.832 501.768ZM389.082 498.027C389.294 497.413 389.513 496.797 389.743 496.179L388.806 495.83C388.573 496.457 388.351 497.081 388.137 497.701L389.082 498.027ZM390.457 494.357C390.703 493.759 390.963 493.163 391.239 492.568L390.333 492.146C390.049 492.756 389.784 493.366 389.532 493.975L390.457 494.357ZM392.106 490.824C392.407 490.257 392.726 489.694 393.067 489.135L392.213 488.614C391.862 489.191 391.532 489.772 391.223 490.355L392.106 490.824ZM394.13 487.511C394.495 486.99 394.883 486.474 395.296 485.964L394.518 485.335C394.091 485.863 393.69 486.397 393.311 486.937L394.13 487.511ZM396.564 484.5C396.996 484.036 397.45 483.578 397.931 483.127L397.247 482.398C396.749 482.865 396.278 483.339 395.832 483.82L396.564 484.5ZM399.39 481.847C399.881 481.443 400.395 481.047 400.935 480.657L400.35 479.846C399.794 480.248 399.262 480.657 398.755 481.074L399.39 481.847ZM402.544 479.568C403.075 479.231 403.628 478.9 404.204 478.576L403.714 477.704C403.122 478.037 402.554 478.377 402.007 478.725L402.544 479.568ZM405.928 477.662C406.5 477.376 407.093 477.097 407.707 476.825L407.302 475.911C406.674 476.189 406.068 476.475 405.482 476.767L405.928 477.662ZM409.488 476.079C410.084 475.843 410.699 475.613 411.333 475.39L411 474.447C410.355 474.674 409.728 474.909 409.12 475.149L409.488 476.079Z" fill="black"/>
<path d="M248 234.5C248 237.538 245.538 240 242.5 240C239.462 240 237 237.538 237 234.5C237 231.462 239.462 229 242.5 229C245.538 229 248 231.462 248 234.5Z" fill="#E8A947"/>
<circle cx="242.5" cy="268.5" r="5.5" fill="#9A6DC8"/>
<circle cx="242.5" cy="251.5" r="5.5" fill="#D574A2"/>
<mask id="path-37-inside-1_45_107" fill="white">
<path d="M5 15C5 9.47715 9.47715 5 15 5H495C500.523 5 505 9.47715 505 15V43H5V15Z"/>
</mask>
<path d="M5 15C5 9.47715 9.47715 5 15 5H495C500.523 5 505 9.47715 505 15V43H5V15Z" fill="#C6C6C6"/>
<path d="M5 5H505H5ZM505 44H5V42H505V44ZM5 43V5V43ZM505 5V43V5Z" fill="#8D8D8D" mask="url(#path-37-inside-1_45_107)"/>
<circle cx="39" cy="24" r="9" fill="#F55656"/>
<circle cx="66" cy="24" r="9" fill="#FED441"/>
<circle cx="93" cy="24" r="9" fill="#28FA49"/>
<defs>
<filter id="filter0_d_45_107" x="0" y="0" width="520" height="578" filterUnits="userSpaceOnUse" color-interpolation-filters="sRGB">
<feFlood flood-opacity="0" result="BackgroundImageFix"/>
<feColorMatrix in="SourceAlpha" type="matrix" values="0 0 0 0 0 0 0 0 0 0 0 0 0 0 0 0 0 0 127 0" result="hardAlpha"/>
<feOffset dx="5" dy="5"/>
<feGaussianBlur stdDeviation="5"/>
<feComposite in2="hardAlpha" operator="out"/>
<feColorMatrix type="matrix" values="0 0 0 0 0 0 0 0 0 0 0 0 0 0 0 0 0 0 0.25 0"/>
<feBlend mode="normal" in2="BackgroundImageFix" result="effect1_dropShadow_45_107"/>
<feBlend mode="normal" in="SourceGraphic" in2="effect1_dropShadow_45_107" result="shape"/>
</filter>
<clipPath id="clip0_45_107">
<rect x="115" y="166" width="276" height="46" rx="23" fill="white"/>
</clipPath>
</defs>
</svg>