<svg
    class="animated"
    version="1.1"
    id="logo"
    xmlns="http://www.w3.org/2000/svg"
    xmlns:xlink="http://www.w3.org/1999/xlink"

	[style.width]="width"
  [style.height]="height"
 
    
    viewBox="0 0 573 520"
    enable-background="new 0 0 573 520"
    xml:space="preserve"
  >
    <path
      fill="#FEFFFE"
      opacity="1.000000"
      stroke="none"
      d="
M487.272827,303.287048 
	C482.890533,309.352448 478.748383,315.126678 474.589264,320.888672 
	C474.300842,321.288208 473.868347,321.580383 473.533752,321.950470 
	C470.844604,324.924500 467.429993,326.343781 463.926331,324.232574 
	C460.350861,322.078156 460.218964,315.566528 462.659576,311.798370 
	C469.043488,301.942017 475.793243,292.259949 481.331299,281.936615 
	C486.521515,272.261719 488.718414,261.500702 490.121826,250.497772 
	C493.370361,225.028717 486.986755,201.560226 475.915497,179.144058 
	C465.698578,158.457657 450.122040,142.612457 429.878571,131.381042 
	C412.620087,121.805771 394.142578,116.376114 374.601807,113.918411 
	C357.294647,111.741623 340.342194,112.454712 324.106628,119.119652 
	C315.467438,122.666168 309.393524,129.527496 303.933167,137.050797 
	C292.137970,153.302261 280.372528,169.599411 267.885712,185.314362 
	C261.914673,192.829071 254.598038,199.247696 245.979462,204.133911 
	C238.382080,208.441147 235.956299,216.454224 233.998169,224.460663 
	C227.006149,253.049683 220.034515,281.643921 212.928268,310.204620 
	C210.837265,318.608582 208.447357,326.944824 205.930908,335.232086 
	C205.212189,337.598938 204.068024,340.796295 202.225052,341.625092 
	C199.787918,342.721039 195.839767,342.858826 193.733963,341.525085 
	C192.068298,340.470093 191.125870,336.311615 191.698639,333.983002 
	C198.569702,306.048523 205.804825,278.203766 212.899063,250.323883 
	C216.306244,236.933868 219.485138,223.484421 223.021408,210.129120 
	C225.045670,202.484161 229.532013,196.393250 236.322098,192.202652 
	C249.108429,184.311386 258.335052,173.019043 267.069458,161.068436 
	C277.976440,146.145264 288.733032,131.019241 300.835968,117.094612 
	C309.441315,107.194038 321.712952,102.211914 334.769592,100.030838 
	C341.812683,98.854301 348.909668,97.201378 355.982574,97.200279 
	C365.284119,97.198830 374.776184,97.710922 383.843353,99.625938 
	C397.747589,102.562553 411.205170,102.050804 424.526764,97.622528 
	C426.378052,97.007126 428.233826,94.428093 428.698029,92.434540 
	C428.937256,91.407043 426.311676,88.758339 424.647400,88.403107 
	C416.428680,86.648865 408.139221,84.574425 399.799500,84.172096 
	C381.407806,83.284821 362.964813,82.894180 344.554718,83.153008 
	C332.103027,83.328056 319.672211,84.929031 308.132019,90.380310 
	C295.170502,96.502998 286.223358,106.836617 277.891846,118.121719 
	C268.145721,131.322952 257.643005,143.963272 247.588242,156.939697 
	C237.810593,169.558517 225.677948,179.104172 211.312698,186.036087 
	C203.675171,189.721558 198.896851,196.537811 195.112625,203.752960 
	C187.487854,218.290710 180.424774,233.121826 173.002731,247.767426 
	C163.532394,266.454834 152.543320,284.277740 136.349136,297.807495 
	C124.357430,307.826202 111.432503,316.916077 98.115334,325.105927 
	C85.423790,332.910980 71.704346,339.050812 58.398151,345.847046 
	C53.358490,348.421051 48.910160,347.479156 46.961887,343.665924 
	C44.694576,339.228302 46.425880,336.116425 51.942291,332.957001 
	C72.161789,321.376495 92.948433,310.610565 112.235672,297.627655 
	C131.365005,284.751068 146.387985,267.280762 157.004623,246.552979 
	C165.937622,229.112305 174.231323,211.345123 183.070801,193.855270 
	C187.638199,184.818161 194.316422,177.425812 203.533661,172.982224 
	C219.742035,165.168274 231.919159,152.911469 242.626862,138.866745 
	C252.463531,125.964500 262.375763,113.119858 272.254333,100.249535 
	C286.469788,81.728844 305.645660,72.021439 328.434601,69.065445 
	C336.876007,67.970497 345.409912,67.343552 353.919495,67.080826 
	C364.734802,66.746902 375.612640,66.378967 386.383209,67.149078 
	C401.698303,68.244133 417.166626,68.967636 431.713287,74.930031 
	C440.012878,78.331894 444.750000,84.761391 444.837555,93.396889 
	C444.908112,100.357430 438.874695,108.154984 431.173035,110.954041 
	C429.581940,111.532310 427.904327,111.872528 424.977325,112.676651 
	C461.663452,129.917679 487.172272,156.285431 498.700043,194.505646 
	C510.023621,232.048645 508.517639,268.614929 487.272827,303.287048 
z"
    />
    <path
      fill="#FEFFFE"
      opacity="1.000000"
      stroke="none"
      d="
M161.247192,440.343689 
	C157.683502,449.655396 154.237549,458.615356 151.031250,467.660278 
	C149.500931,471.977356 146.069092,474.771698 141.896255,473.941376 
	C137.384003,473.043457 136.228897,469.178864 137.144592,465.638458 
	C139.425095,456.820953 141.697418,447.869690 145.320496,439.559601 
	C152.083511,424.047699 161.856415,410.394501 174.523773,399.060760 
	C187.409546,387.531677 202.172226,378.802460 218.433350,373.159546 
	C232.959457,368.118744 247.799301,363.782562 262.771393,360.298798 
	C272.240417,358.095520 282.192657,357.866241 291.953247,357.052887 
	C299.183746,356.450409 306.477570,355.800659 313.702728,356.111572 
	C328.308136,356.739990 342.923523,357.637787 357.465027,359.112488 
	C372.672058,360.654663 387.773987,363.209198 402.966461,364.927094 
	C412.422180,365.996277 421.958954,366.746582 431.462799,366.784943 
	C434.966705,366.799133 439.525879,365.305573 441.759979,362.833466 
	C445.728516,358.442017 443.632355,351.628082 437.507141,350.142517 
	C428.428223,347.940491 419.181366,345.871887 409.900879,345.201508 
	C398.295013,344.363159 386.572754,345.305054 374.918427,344.929749 
	C356.363190,344.332214 338.159058,342.129761 321.335693,333.104980 
	C304.268494,323.949432 290.687561,311.427765 281.120636,294.540283 
	C273.924286,281.837280 269.832275,268.157593 269.102020,253.681488 
	C268.201111,235.822968 274.769226,220.121353 284.799042,205.718414 
	C297.900299,186.904816 310.740875,167.894974 324.370453,149.470276 
	C331.091919,140.384079 340.737183,134.912766 352.178192,132.971573 
	C379.536987,128.329590 404.502502,134.264679 427.316223,149.762329 
	C451.562531,166.233139 466.197296,189.076996 472.012604,217.693527 
	C476.701263,240.765976 474.456451,263.121429 463.864624,284.196167 
	C457.604950,296.651215 449.066833,307.719910 438.458313,316.850861 
	C432.327698,322.127594 427.320068,319.861542 425.985596,313.232422 
	C425.505096,310.845398 427.548492,307.241150 429.495087,305.197052 
	C438.070374,296.192169 445.840515,286.704865 451.225739,275.382263 
	C457.854706,261.444733 461.222443,246.713470 459.829163,231.436859 
	C458.206604,213.646317 451.850525,197.332352 440.648438,183.182968 
	C432.664642,173.098587 423.687988,164.012360 412.255524,157.826279 
	C403.027588,152.833069 393.328094,148.926468 382.733307,148.042419 
	C376.004272,147.480957 369.239563,147.037811 362.492950,147.065262 
	C350.811005,147.112793 341.065826,152.425140 334.439972,161.430496 
	C320.580078,180.267822 307.599487,199.757721 294.460327,219.117096 
	C289.066925,227.063797 285.939423,235.819061 284.863190,245.589249 
	C282.349945,268.403961 292.039001,286.331940 306.232819,302.740021 
	C317.701263,315.997559 332.358704,323.882904 349.246674,327.542755 
	C356.228760,329.055878 363.489960,329.704712 370.646942,329.895996 
	C384.137024,330.256561 397.667480,329.512024 411.135071,330.170074 
	C420.310364,330.618408 429.575653,331.992493 438.488739,334.207855 
	C446.341278,336.159637 453.047913,340.861115 456.299774,348.837646 
	C461.920532,362.624817 455.970703,377.344696 441.633545,380.593689 
	C432.286560,382.711884 422.072968,381.315948 412.264557,380.987518 
	C404.752838,380.736053 397.250183,379.840790 389.775024,378.963287 
	C379.922150,377.806610 370.111572,376.291809 360.261108,375.112061 
	C353.115692,374.256287 345.948517,373.360809 338.767365,373.072113 
	C324.524261,372.499542 310.214478,371.413300 296.022400,372.188843 
	C264.981995,373.885132 234.853989,379.779724 207.122528,394.941284 
	C189.062332,404.815308 174.393509,418.076538 163.999496,435.929657 
	C163.191650,437.317230 162.310440,438.662109 161.247192,440.343689 
z"
    />
    <path
      fill="#FFFFFE"
      opacity="1.000000"
      stroke="none"
      d="
M511.309570,393.236511 
	C513.049133,385.865967 515.783875,378.793488 515.808228,371.711639 
	C516.103882,285.891998 516.341431,200.068756 515.788879,114.251625 
	C515.626160,88.980324 501.626648,69.033707 473.945557,63.303509 
	C463.891113,61.222168 453.175873,62.265862 442.758850,62.027702 
	C436.263214,61.879192 429.761414,62.006149 423.262360,61.997826 
	C419.484467,61.992989 414.233490,58.118843 414.202850,55.333965 
	C414.166290,52.010868 419.828064,47.011692 423.712585,47.006649 
	C437.210602,46.989136 450.742645,46.395195 464.197968,47.153248 
	C480.928284,48.095818 496.458252,52.560219 509.285187,64.601501 
	C522.787109,77.276436 529.923157,92.385811 529.995605,110.850304 
	C530.338562,198.256531 530.857300,285.662872 530.829712,373.069000 
	C530.824524,389.423157 524.977600,404.181335 513.847351,416.816498 
	C501.274841,431.088867 485.599335,437.060547 466.979797,437.032166 
	C409.321777,436.944366 351.663544,437.000122 294.005371,437.000061 
	C286.725464,437.000031 284.104553,435.486511 284.000061,431.222961 
	C283.861664,425.576111 287.856262,422.009003 294.385895,422.008179 
	C352.044067,422.000793 409.702576,422.119507 467.360168,421.936737 
	C487.807709,421.871948 502.259338,411.882324 511.309570,393.236511 
z"
    />
    <path
      fill="#FFFFFE"
      opacity="1.000000"
      stroke="none"
      d="
M169.976288,94.009506 
	C168.636246,100.529259 166.263916,106.630669 166.179489,112.763580 
	C165.778198,141.909912 166.003311,171.064819 165.990509,200.216675 
	C165.989853,201.706711 166.095535,203.259354 165.732895,204.675583 
	C164.352615,210.065613 161.556107,212.379318 157.201904,211.999237 
	C153.701736,211.693726 151.049530,207.940643 151.021774,202.842468 
	C150.954651,190.515762 151.000229,178.188461 151.000183,165.861389 
	C151.000153,152.035080 151.007980,138.208771 150.997543,124.382454 
	C150.987030,110.471954 152.245377,96.680183 158.121475,83.924767 
	C164.729630,69.580223 175.678162,59.270733 190.232407,53.046059 
	C201.473007,48.238579 213.399460,47.002598 225.504288,47.003105 
	C273.646484,47.005112 321.788696,46.992374 369.930908,47.008888 
	C377.774933,47.011578 380.793549,50.858349 380.050446,55.794758 
	C379.483032,59.564064 377.638428,61.692268 373.825958,61.985458 
	C372.666718,62.074604 371.494873,62.000046 370.328796,62.000046 
	C320.187592,62.000061 270.043854,61.701828 219.906403,62.135315 
	C197.392197,62.329971 179.686264,72.306786 169.976288,94.009506 
z"
    />
    <path
      fill="#FFFFFF"
      opacity="1.000000"
      stroke="none"
      d="
M87.295410,458.206787 
	C82.085724,462.739990 77.321365,467.267700 72.138191,471.250336 
	C67.595848,474.740540 64.333069,474.317657 61.296310,470.777252 
	C58.883259,467.963989 59.431301,463.932587 63.135967,460.429718 
	C72.247429,451.814789 81.826744,443.668579 90.592529,434.721191 
	C99.905350,425.215454 108.487053,414.994263 117.407280,405.102875 
	C128.297607,393.026886 138.130249,380.119995 145.621689,365.694855 
	C151.297241,354.766296 155.974533,343.313141 160.937363,332.023682 
	C162.866714,327.634857 164.466080,323.090759 166.024170,318.551636 
	C167.706039,313.652008 171.891602,314.402802 175.047623,315.263641 
	C178.553909,316.219971 179.615051,319.867188 178.884827,323.363861 
	C174.152924,346.022491 164.697739,366.706970 151.046997,385.240479 
	C139.768433,400.553345 127.680313,415.297363 115.439255,429.863464 
	C108.312767,438.343567 100.208748,446.006104 92.471710,453.965668 
	C91.009926,455.469543 89.205200,456.640045 87.295410,458.206787 
z"
    />
    <path
      fill="#FFFFFF"
      opacity="1.000000"
      stroke="none"
      d="
M283.678619,390.721741 
	C302.516632,383.584625 321.833282,385.043121 340.988220,385.068176 
	C345.340515,385.073883 348.241577,388.932678 347.993500,393.446808 
	C347.739563,398.067902 344.366608,398.831757 340.772369,398.971954 
	C330.194733,399.384430 319.511688,398.868103 309.053833,400.180725 
	C291.452911,402.389984 275.124725,408.591858 260.528351,418.962250 
	C243.886398,430.786041 232.352112,446.488556 224.877579,465.356537 
	C223.934326,467.737549 223.033813,470.751007 221.143845,471.978485 
	C219.002899,473.368958 215.284561,474.202484 213.116959,473.269226 
	C209.252029,471.605255 209.341827,467.652405 210.570297,463.864563 
	C214.564957,451.547638 220.126419,440.013458 228.049469,429.748505 
	C242.439377,411.105286 260.702026,397.886566 283.678619,390.721741 
z"
    />
    <path
      fill="#FEFFFE"
      opacity="1.000000"
      stroke="none"
      d="
M217.515930,79.009613 
	C226.461472,79.000931 234.954437,78.965225 243.446915,79.012856 
	C248.824081,79.043007 250.945999,81.157661 250.999969,86.327866 
	C251.050369,91.156525 249.118118,92.703171 243.517654,93.038734 
	C234.867630,93.556999 226.188599,93.985909 217.603836,95.090019 
	C208.657303,96.240646 201.098114,103.485649 199.968628,114.382057 
	C199.505798,118.847084 198.428528,123.256592 198.104584,127.725708 
	C197.721619,133.008987 194.693146,134.426010 190.120636,133.979218 
	C185.399231,133.517868 184.245010,129.966705 184.039612,126.119499 
	C182.771561,102.369637 192.121292,86.682991 215.778687,79.690804 
	C216.233414,79.556404 216.636154,79.246094 217.515930,79.009613 
z"
    />
    <path
      fill="#FEFFFE"
      opacity="1.000000"
      stroke="none"
      d="
M352.662476,198.795425 
	C356.321136,184.672653 369.740753,175.522324 382.176697,175.081573 
	C386.881531,174.914810 391.638336,175.506470 396.335327,176.059433 
	C399.825714,176.470367 402.679810,181.771988 401.981995,186.170578 
	C401.286438,190.555161 397.862061,190.330124 394.686859,190.167633 
	C388.335907,189.842667 381.907410,188.661972 375.866760,191.684052 
	C368.734497,195.252258 366.440308,202.094833 365.156708,209.121307 
	C364.296112,213.832169 362.289368,216.185989 357.551971,215.985382 
	C352.606781,215.775986 351.566833,211.795486 351.163269,208.196182 
	C350.832520,205.246521 351.919403,202.137878 352.662476,198.795425 
z"
    />
    <path
      fill="#FDFDFF"
      opacity="1.000000"
      stroke="none"
      d="
M196.594986,362.772217 
	C192.958130,364.286621 190.118683,363.505249 188.013428,360.769226 
	C185.781082,357.867981 184.862213,354.483612 187.352524,351.398041 
	C189.131165,349.194305 191.405075,348.470825 194.666183,349.820435 
	C201.410339,352.611542 202.409515,357.001007 196.594986,362.772217 
z"
    />
  </svg>